<?xml version="1.0" encoding="utf-8"?>
<!-- Generator: Adobe Illustrator 24.2.1, SVG Export Plug-In . SVG Version: 6.00 Build 0)  -->
<svg version="1.1" id="Layer_1" xmlns="http://www.w3.org/2000/svg" xmlns:xlink="http://www.w3.org/1999/xlink" x="0px" y="0px"
	 viewBox="0 0 1920 1080" style="enable-background:new 0 0 1920 1080;" xml:space="preserve">
<style type="text/css">
	.st0{fill:#414042;}
	.st1{fill:#E6E7E8;}
	.st2{fill:#7C828B;}
	.st3{fill:#808285;}
	.st4{fill:#A7A9AC;}
	.st5{fill:#C5CED6;}
	.st6{fill:none;stroke:#0580A2;stroke-width:10.8;stroke-miterlimit:10;}
	.st7{fill:none;stroke:#6D6E71;stroke-width:21.6;stroke-linecap:round;stroke-miterlimit:10;}
	.st8{fill:none;stroke:#6D6E71;stroke-width:18;stroke-linecap:round;stroke-miterlimit:10;}
	.st9{fill:none;stroke:#F7941D;stroke-width:18;stroke-linecap:round;stroke-miterlimit:10;}
	.st10{fill:#F7941D;}
	.st11{fill:none;stroke:#0580A2;stroke-width:5;stroke-miterlimit:10;}
	.st12{fill:none;stroke:#6D6E71;stroke-width:12;stroke-linecap:round;stroke-miterlimit:10;}
	.st13{fill:none;stroke:#6D6E71;stroke-width:10;stroke-linecap:round;stroke-miterlimit:10;}
	.st14{fill:none;stroke:#F7941D;stroke-width:10;stroke-linecap:round;stroke-miterlimit:10;}
</style>
<g>
	<path class="st0" d="M1250.12,168.14H218.08c-14.31,0-26.02,11.71-26.02,26.01v687.79h1084.06V194.15
		C1276.11,179.85,1264.41,168.14,1250.12,168.14z"/>
	<rect x="240.29" y="212.95" class="st1" width="988.68" height="635.26"/>
	<polygon class="st2" points="1392.29,946.14 74.07,946.14 9.02,922.29 1457.34,922.29 	"/>
	<path class="st3" d="M737.69,194.98c0,2.54-2.04,4.6-4.61,4.6c-2.54,0-4.6-2.06-4.6-4.6c0-2.56,2.07-4.61,4.6-4.61
		C735.65,190.37,737.69,192.42,737.69,194.98z"/>
	<rect x="615.38" y="881.83" class="st4" width="234.71" height="23.84"/>
	<path class="st5" d="M831.47,881.83v8.66c0,5.96-4.87,10.85-10.84,10.85H645c-5.95,0-10.83-4.88-10.83-10.85v-8.66H9.02v40.46
		h1448.32v-40.46H831.47z"/>
	<line class="st6" x1="240.29" y1="217.97" x2="1228.97" y2="217.97"/>
	<line class="st7" x1="494.19" y1="515.51" x2="981.19" y2="515.51"/>
	<line class="st7" x1="495.35" y1="562.27" x2="982.35" y2="562.27"/>
	<line class="st7" x1="495.35" y1="609.07" x2="982.35" y2="609.07"/>
	<line class="st7" x1="495.35" y1="657.67" x2="872.6" y2="657.67"/>
	<line class="st8" x1="1139.29" y1="241.62" x2="1212.54" y2="241.62"/>
	<g>
		<g>
			<line class="st9" x1="951.19" y1="460" x2="1143.57" y2="283.32"/>
			<g>
				<path class="st10" d="M1112.24,429.4c-4.8-1.27-7.65-6.22-6.37-11.02l35.51-133.04l-135.58,24.08
					c-4.89,0.87-9.58-2.4-10.44-7.29c-0.86-4.89,2.44-9.57,7.29-10.44l149.49-26.55c3.03-0.54,6.12,0.51,8.2,2.78
					s2.86,5.44,2.07,8.41l-39.16,146.7c-0.46,1.71-1.39,3.18-2.6,4.3C1118.47,429.33,1115.33,430.21,1112.24,429.4z"/>
			</g>
		</g>
	</g>
</g>
<g>
	<g>
		<g>
			<path class="st0" d="M1854.04,889.34c0,31.22-25.55,56.8-56.79,56.8h-251.19c-31.26,0-56.79-25.58-56.79-56.8V235.13
				c0-31.23,25.53-56.8,56.79-56.8h251.19c31.25,0,56.79,25.57,56.79,56.8V889.34z"/>
		</g>
		<g>
			<path class="st1" d="M1844.33,874.35c0,29.8-24.38,54.17-54.17,54.17H1554.5c-29.8,0-54.17-24.38-54.17-54.17V245.69
				c0-29.8,24.38-54.17,54.17-54.17h235.66c29.8,0,54.17,24.38,54.17,54.17V874.35z"/>
		</g>
	</g>
	<line class="st11" x1="1500.32" y1="243.86" x2="1844.33" y2="243.86"/>
	<line class="st12" x1="1536.73" y1="401.47" x2="1807.29" y2="401.47"/>
	<line class="st12" x1="1537.37" y1="427.45" x2="1807.93" y2="427.45"/>
	<line class="st12" x1="1537.37" y1="453.45" x2="1807.93" y2="453.45"/>
	<line class="st12" x1="1537.37" y1="480.45" x2="1746.96" y2="480.45"/>
	<line class="st13" x1="1787.37" y1="261.11" x2="1828.07" y2="261.11"/>
	<g>
		<g>
			<line class="st14" x1="1758.62" y1="385.05" x2="1802.24" y2="282.63"/>
			<g>
				<path class="st10" d="M1819.87,363.74c-2.72,0.45-5.3-1.39-5.75-4.12l-12.52-75.47l-63.09,43.26c-2.28,1.56-5.4,0.98-6.95-1.3
					c-1.56-2.28-0.96-5.4,1.3-6.95l69.57-47.7c1.41-0.97,3.22-1.15,4.79-0.48c1.57,0.67,2.69,2.1,2.97,3.78l13.81,83.21
					c0.16,0.97,0.03,1.93-0.33,2.77C1823,362.28,1821.62,363.44,1819.87,363.74z"/>
			</g>
		</g>
	</g>
</g>
</svg>
