<?xml version="1.0" encoding="utf-8"?>
<!-- Generator: Adobe Illustrator 24.2.1, SVG Export Plug-In . SVG Version: 6.00 Build 0)  -->
<svg version="1.1" id="Layer_1" xmlns="http://www.w3.org/2000/svg" xmlns:xlink="http://www.w3.org/1999/xlink" x="0px" y="0px"
	 viewBox="0 0 1920 1080" style="enable-background:new 0 0 1920 1080;" xml:space="preserve">
<style type="text/css">
	.st0{fill:#414042;}
	.st1{fill:#E6E7E8;}
	.st2{fill:#7C828B;}
	.st3{fill:#808285;}
	.st4{fill:#A7A9AC;}
	.st5{fill:#C5CED6;}
	.st6{fill:none;stroke:#0580A2;stroke-width:10.8;stroke-miterlimit:10;}
	.st7{fill:none;stroke:#0580A2;stroke-width:5;stroke-miterlimit:10;}
	.st8{fill:#6D6E71;}
	.st9{font-family:'Helvetica-Bold';}
	.st10{font-size:24px;}
	.st11{fill:#F37221;}
	.st12{font-size:18px;}
	.st13{fill:#FFFFFF;}
	.st14{font-size:72px;}
	.st15{font-size:40px;}
</style>
<path class="st0" d="M1250.12,168.14H218.08c-14.31,0-26.02,11.71-26.02,26.01v687.79h1084.06V194.15
	C1276.11,179.85,1264.41,168.14,1250.12,168.14z"/>
<rect x="240.29" y="212.95" class="st1" width="988.68" height="635.26"/>
<polygon class="st2" points="1392.29,946.14 74.07,946.14 9.02,922.29 1457.34,922.29 "/>
<path class="st3" d="M737.69,194.98c0,2.54-2.04,4.6-4.61,4.6c-2.54,0-4.6-2.06-4.6-4.6c0-2.56,2.07-4.61,4.6-4.61
	C735.65,190.37,737.69,192.42,737.69,194.98z"/>
<rect x="615.38" y="881.83" class="st4" width="234.71" height="23.84"/>
<path class="st5" d="M831.47,881.83v8.66c0,5.96-4.87,10.85-10.84,10.85H645c-5.95,0-10.83-4.88-10.83-10.85v-8.66H9.02v40.46
	h1448.32v-40.46H831.47z"/>
<line class="st6" x1="240.29" y1="217.97" x2="1228.97" y2="217.97"/>
<g>
	<g>
		<path class="st0" d="M1854.04,889.34c0,31.22-25.55,56.8-56.79,56.8h-251.19c-31.26,0-56.79-25.58-56.79-56.8V235.13
			c0-31.23,25.53-56.8,56.79-56.8h251.19c31.25,0,56.79,25.57,56.79,56.8V889.34z"/>
	</g>
	<g>
		<path class="st1" d="M1844.33,874.35c0,29.8-24.38,54.17-54.17,54.17H1554.5c-29.8,0-54.17-24.38-54.17-54.17V245.69
			c0-29.8,24.38-54.17,54.17-54.17h235.66c29.8,0,54.17,24.38,54.17,54.17V874.35z"/>
	</g>
</g>
<line class="st7" x1="1500.32" y1="243.86" x2="1844.33" y2="243.86"/>
<text transform="matrix(1 0 0 1 1031.4663 256.9795)" class="st8 st9 st10">GO TO MYCASA</text>
<g id="Group_258" transform="translate(0 59.123) rotate(-90)">
	<path id="Path_1698" class="st11" d="M-298.97,1029.34l-0.79,2.29c-6.34,0.75-12.7,1.37-19.01,2.32c-2.79,0.26-5.52,1.07-8.02,2.38
		c-7.68,4.53-11.16,13.86-8.27,22.18c2.58,7.93,9.27,12.26,18.57,11.6c12.07-0.84,24.13-1.79,36.17-3
		c9.99-0.99,20.01-1.98,29.88-3.81c14.55-2.69,19.09-9.05,17.91-24.05c-1.58-20.05-3.3-40.09-5.13-60.12
		c-0.19-2.82-0.79-5.59-1.78-8.22c-3.54-8.32-12.36-13-21.32-11.29c-7.46,1.7-13.71,10.03-13.6,18.79c0.06,5.67,0.8,11.3,1.18,16.95
		c0.11,1.59,0.03,3.19,0.04,6.49l-8.83-7.3c-15.73-13-31.34-26.14-47.24-38.93c-4.91-3.57-10.03-6.85-15.34-9.82
		c-5.33-3.5-12.42-2.92-17.27,1.42c-5.93,4.6-9.57,11.01-6.86,18.4c1.81,4.99,4.8,9.44,8.71,12.98
		c17.99,15.47,36.44,30.41,54.73,45.54L-298.97,1029.34z"/>
	<path id="Path_1699" class="st11" d="M-298.97,1029.34l-6.27-5.19c-18.29-15.12-36.74-30.07-54.73-45.54
		c-3.91-3.54-6.9-7.99-8.71-12.98c-2.72-7.4,0.92-13.81,6.85-18.41c4.85-4.34,11.94-4.92,17.27-1.42
		c5.31,2.97,10.43,6.25,15.34,9.82c15.91,12.78,31.51,25.92,47.24,38.93l8.82,7.29c-0.01-3.31,0.06-4.91-0.04-6.49
		c-0.38-5.65-1.12-11.29-1.18-16.95c-0.1-8.76,6.14-17.1,13.6-18.79c8.96-1.71,17.79,2.97,21.33,11.3c0.99,2.64,1.58,5.41,1.77,8.23
		c1.79,20.03,3.5,40.07,5.13,60.12c1.18,14.99-3.35,21.36-17.91,24.05c-9.87,1.83-19.9,2.81-29.88,3.81
		c-12.04,1.21-24.1,2.16-36.17,3c-9.3,0.65-15.98-3.68-18.57-11.6c-2.89-8.32,0.6-17.65,8.29-22.18c2.5-1.31,5.23-2.12,8.02-2.38
		c6.31-0.95,12.67-1.56,19.01-2.32L-298.97,1029.34z"/>
</g>
<text transform="matrix(1 0 0 1 1700.7689 269.0364)" class="st8 st9 st12">GO TO MYCASA</text>
<g id="Group_258_1_" transform="translate(0 59.123) rotate(-90)">
	<path id="Path_1698_1_" class="st11" d="M-287.36,1730.3l-0.49,1.41c-3.79,0.69-7.58,1.29-11.36,2.1c-1.67,0.26-3.3,0.85-4.81,1.74
		c-4.62,3.03-6.79,8.81-5.15,13.74c1.46,4.71,5.4,7.09,10.96,6.35c7.21-0.95,14.4-1.97,21.59-3.15c5.97-0.97,11.95-1.93,17.85-3.4
		c8.7-2.17,11.47-6.19,10.91-15.23c-0.75-12.1-1.57-24.18-2.47-36.26c-0.09-1.7-0.42-3.36-0.98-4.92c-2.03-4.92-7.24-7.42-12.6-6.06
		c-4.47,1.3-8.27,6.58-8.29,11.89c-0.02,3.44,0.37,6.82,0.54,10.23c0.05,0.96-0.01,1.93-0.04,3.93l-5.19-4.1
		c-9.25-7.31-18.43-14.7-27.78-21.87c-2.89-1.99-5.91-3.79-9.05-5.39c-3.14-1.93-7.37-1.31-10.31,1.5c-3.58,3-5.81,7.02-4.27,11.4
		c1.03,2.96,2.77,5.55,5.07,7.55c10.57,8.72,21.43,17.1,32.18,25.6L-287.36,1730.3z"/>
	<path id="Path_1699_1_" class="st11" d="M-287.36,1730.3l-3.69-2.91c-10.76-8.5-21.61-16.88-32.18-25.6c-2.3-2-4.04-4.59-5.07-7.55
		c-1.55-4.39,0.68-8.41,4.26-11.41c2.94-2.81,7.17-3.42,10.31-1.49c3.13,1.6,6.15,3.41,9.05,5.39c9.36,7.16,18.53,14.56,27.78,21.87
		l5.19,4.1c0.02-2,0.09-2.98,0.04-3.93c-0.17-3.41-0.55-6.8-0.54-10.23c0.03-5.3,3.83-10.59,8.29-11.89
		c5.36-1.36,10.58,1.15,12.61,6.07c0.56,1.56,0.89,3.22,0.97,4.93c0.87,12.08,1.69,24.16,2.47,36.26
		c0.56,9.05-2.21,13.07-10.91,15.23c-5.9,1.47-11.89,2.43-17.85,3.4c-7.19,1.18-14.39,2.19-21.59,3.15
		c-5.55,0.74-9.49-1.64-10.96-6.35c-1.64-4.94,0.53-10.72,5.16-13.75c1.5-0.89,3.14-1.48,4.81-1.74c3.77-0.81,7.57-1.41,11.36-2.1
		L-287.36,1730.3z"/>
</g>
<g id="Group_205_1_" transform="translate(0 134.325)">
	<path id="Path_1506_1_" class="st13" d="M1148.67,206.83l-0.28,0.05l-0.77-1.64c-3.92-8.47-13.96-12.15-22.43-8.23
		c-6.93,3.21-10.85,10.68-9.54,18.21c3.22,18.72,6.44,37.43,9.67,56.15c1.01,7.76,2.76,15.4,5.24,22.82
		c9.77,29.53,39.81,47.36,70.41,41.77c31.24-5.19,54.42-31.8,55.28-63.46c0.22-15.34,0.07-30.69,0-46.04
		c-0.18-9.34-7.89-16.77-17.23-16.59c-2.74,0.05-5.42,0.77-7.82,2.09c-1.26-5.1-4.8-9.33-9.6-11.46
		c-4.77-2.17-10.29-1.97-14.89,0.56c-5.14-11.73-11.48-14.66-24.25-11.22v-39.19c0.02-9.27-7.47-16.8-16.73-16.82
		c-0.01,0-0.01,0-0.02,0h-0.13c-9.3-0.04-16.87,7.46-16.92,16.76v37.76C1148.67,194.51,1148.67,200.67,1148.67,206.83z"/>
	<path id="Path_1513_1_" class="st13" d="M1157.87,203.53V152c-0.02-1.57,0.27-3.13,0.86-4.59c1.46-3.16,4.91-4.89,8.31-4.17
		c3.56,0.67,6.14,3.78,6.16,7.4c0.09,4.17,0,8.33,0.05,12.5v64.03c-0.35,2.53,1.42,4.87,3.95,5.21c2.53,0.35,4.87-1.42,5.21-3.95
		c0.01-0.06,0.02-0.12,0.02-0.18c0.04-0.29,0.04-0.59,0.02-0.89V205.4c-0.1-4.25,3.26-7.77,7.51-7.87c2.25-0.05,4.41,0.89,5.92,2.57
		c1.37,1.6,2.06,3.67,1.95,5.77v21.79c-0.16,2.47,1.71,4.61,4.18,4.78c0.72,0.05,1.44-0.07,2.1-0.37c1.86-0.65,3.06-2.46,2.95-4.43
		c0-3.92-0.05-7.83,0-11.75c0.05-3.76,2.8-6.93,6.52-7.5c3.57-0.56,7.04,1.49,8.26,4.9c0.38,1.2,0.56,2.45,0.53,3.71
		c0.05,7.18,0,14.37,0.07,21.55c-0.17,2.55,1.75,4.76,4.3,4.93c2.37,0.16,4.48-1.5,4.87-3.84c0.06-0.31,0.08-0.63,0.06-0.94
		c0.05-4.04-0.05-8.08,0-12.12c0.09-4.21,3.57-7.55,7.78-7.46c4.09,0.09,7.39,3.39,7.46,7.49c0,15.73,0.51,31.43-0.14,47.17
		c-1.54,31.21-28.09,55.26-59.29,53.72c0,0,0,0-0.01,0c-0.92-0.04-1.83-0.12-2.75-0.21c-18.83-1.58-35.28-13.36-42.85-30.68
		c-3.67-7.91-6.09-16.34-7.19-24.99c-3.15-18.86-6.5-37.72-9.69-56.53c-0.32-1.73-0.29-3.5,0.1-5.21c1-3.34,4.22-5.51,7.69-5.17
		c3.61,0.25,6.55,2.97,7.08,6.55c1.18,6.01,2.3,12.01,3.46,18.03c1.77,9.18,3.54,18.35,5.32,27.51c0.27,2.52,2.52,4.35,5.04,4.1
		c2.5-0.19,4.37-2.38,4.18-4.88c0,0,0-0.01,0-0.01l-0.01-0.07v-52.48L1157.87,203.53z"/>
	<path id="Path_1507_1_" d="M1148.67,206.82v-56.2c0.09-9.33,7.72-16.83,17.05-16.74c9.21,0.08,16.66,7.53,16.74,16.74v39.2
		c12.79-3.44,19.13-0.5,24.25,11.22c4.6-2.52,10.12-2.73,14.89-0.56c4.8,2.13,8.34,6.36,9.6,11.46c8.18-4.5,18.45-1.52,22.95,6.66
		c1.32,2.4,2.04,5.09,2.09,7.83c0.06,15.35,0.21,30.7,0,46.04c-0.85,31.66-24.03,58.28-55.28,63.46
		c-30.62,5.61-60.68-12.22-70.44-41.78c-2.48-7.42-4.24-15.06-5.24-22.82c-3.26-18.71-6.48-37.43-9.67-56.15
		c-1.58-9.21,4.6-17.95,13.8-19.53c7.53-1.29,14.99,2.62,18.2,9.55l0.77,1.64L1148.67,206.82z M1157.87,203.53L1157.87,203.53v52.47
		c0.24,2.5-1.6,4.72-4.1,4.96h-0.07c-2.52,0.25-4.77-1.58-5.04-4.1c-1.8-9.16-3.57-18.33-5.32-27.51
		c-1.16-6.01-2.29-12.02-3.46-18.03c-0.53-3.58-3.47-6.3-7.08-6.55c-3.47-0.34-6.69,1.82-7.7,5.16c-0.39,1.71-0.42,3.48-0.1,5.21
		c3.19,18.86,6.54,37.67,9.69,56.53c1.1,8.65,3.52,17.08,7.18,24.98c7.56,17.32,24.02,29.1,42.85,30.68
		c31.1,3.06,58.79-19.67,61.85-50.76c0.09-0.92,0.15-1.83,0.2-2.75c0.66-15.7,0.16-31.43,0.14-47.17c-0.09-4.21-3.58-7.55-7.79-7.45
		c-4.07,0.09-7.35,3.36-7.45,7.43c-0.07,4.04,0,8.08,0,12.12c0.09,2.54-1.89,4.68-4.44,4.78c0,0-0.01,0-0.01,0
		c-0.32,0.01-0.63-0.01-0.94-0.06c-2.35-0.37-4.02-2.48-3.84-4.84c0-7.18,0-14.37-0.07-21.55c0.03-1.26-0.15-2.51-0.53-3.71
		c-1.23-3.4-4.7-5.45-8.27-4.88c-3.71,0.57-6.47,3.74-6.51,7.49c-0.07,3.92,0,7.83,0,11.75c0.12,1.97-1.08,3.78-2.95,4.43
		c-2.28,1-4.93-0.04-5.92-2.32c-0.29-0.66-0.41-1.38-0.37-2.09c-0.06-7.27,0-14.52,0-21.79c0.11-2.1-0.58-4.17-1.95-5.77
		c-2.83-3.17-7.69-3.45-10.86-0.62c-1.68,1.5-2.62,3.67-2.57,5.92v21.97c0.23,2.55-1.65,4.8-4.2,5.03c-2.55,0.23-4.8-1.65-5.03-4.2
		c-0.03-0.34-0.02-0.68,0.02-1.02V163.2c0-4.17,0-8.33-0.05-12.5c-0.02-3.62-2.6-6.73-6.16-7.4c-3.4-0.72-6.86,1.01-8.32,4.17
		c-0.58,1.46-0.88,3.02-0.86,4.59c-0.09,17.12-0.04,34.3-0.04,51.47L1157.87,203.53z"/>
</g>
<g id="Group_205_2_" transform="translate(0 134.325)">
	<path id="Path_1506_2_" class="st13" d="M1791.35,191.73l-0.19,0.04l-0.54-1.15c-2.74-5.92-9.76-8.5-15.68-5.75
		c-4.85,2.25-7.59,7.47-6.67,12.74c2.25,13.09,4.5,26.18,6.76,39.26c0.7,5.43,1.93,10.77,3.66,15.96
		c6.83,20.65,27.84,33.12,49.24,29.21c21.85-3.63,38.06-22.24,38.65-44.38c0.15-10.73,0.05-21.46,0-32.19
		c-0.12-6.53-5.52-11.73-12.05-11.6c-1.91,0.04-3.79,0.54-5.47,1.46c-0.88-3.56-3.36-6.52-6.71-8.01c-3.34-1.52-7.2-1.38-10.41,0.39
		c-3.59-8.2-8.03-10.25-16.96-7.84v-27.41c0.02-6.48-5.22-11.75-11.7-11.76c0,0-0.01,0-0.01,0h-0.09
		c-6.5-0.03-11.8,5.22-11.83,11.72v26.41C1791.35,183.12,1791.36,187.43,1791.35,191.73z"/>
	<path id="Path_1513_2_" class="st13" d="M1797.79,189.43v-36.04c-0.01-1.1,0.19-2.19,0.6-3.21c1.02-2.21,3.43-3.42,5.81-2.91
		c2.49,0.47,4.3,2.64,4.31,5.18c0.06,2.91,0,5.83,0.03,8.74v44.78c-0.24,1.77,0.99,3.4,2.76,3.65s3.4-0.99,3.65-2.76
		c0.01-0.04,0.01-0.08,0.01-0.12c0.03-0.21,0.03-0.41,0.01-0.62v-15.37c-0.07-2.97,2.28-5.43,5.25-5.5c1.58-0.04,3.09,0.62,4.14,1.8
		c0.96,1.12,1.44,2.57,1.36,4.04v15.24c-0.11,1.73,1.2,3.23,2.93,3.34c0.5,0.04,1.01-0.05,1.47-0.26c1.3-0.46,2.14-1.72,2.06-3.1
		c0-2.74-0.04-5.48,0-8.22c0.03-2.63,1.96-4.85,4.56-5.24c2.5-0.39,4.92,1.04,5.78,3.42c0.26,0.84,0.39,1.71,0.37,2.59
		c0.04,5.02,0,10.05,0.05,15.07c-0.12,1.78,1.23,3.33,3.01,3.45c1.66,0.11,3.13-1.05,3.41-2.69c0.04-0.22,0.05-0.44,0.04-0.66
		c0.04-2.83-0.03-5.65,0-8.48c0.06-2.94,2.5-5.28,5.44-5.22c2.86,0.06,5.17,2.37,5.22,5.24c0,11,0.36,21.98-0.1,32.98
		c-1.08,21.82-19.64,38.64-41.46,37.57c0,0,0,0,0,0c-0.64-0.03-1.28-0.08-1.92-0.14c-13.17-1.11-24.67-9.34-29.96-21.45
		c-2.56-5.53-4.26-11.43-5.03-17.48c-2.2-13.19-4.55-26.38-6.78-39.53c-0.23-1.21-0.2-2.45,0.07-3.64c0.7-2.34,2.95-3.85,5.38-3.61
		c2.52,0.17,4.58,2.08,4.95,4.58c0.82,4.2,1.61,8.4,2.42,12.61c1.24,6.42,2.48,12.83,3.72,19.24c0.19,1.76,1.76,3.04,3.52,2.87
		c1.75-0.14,3.06-1.66,2.92-3.41c0,0,0,0,0-0.01l-0.01-0.05v-36.7L1797.79,189.43z"/>
	<path id="Path_1507_2_" d="M1791.36,191.73v-39.3c0.06-6.53,5.4-11.77,11.93-11.71c6.44,0.06,11.65,5.27,11.71,11.71v27.41
		c8.94-2.4,13.38-0.35,16.96,7.84c3.22-1.76,7.07-1.91,10.41-0.39c3.36,1.49,5.83,4.45,6.71,8.01c5.72-3.15,12.9-1.06,16.05,4.66
		c0.92,1.68,1.43,3.56,1.46,5.48c0.04,10.73,0.15,21.47,0,32.19c-0.6,22.14-16.81,40.75-38.66,44.38
		c-21.41,3.92-42.44-8.54-49.26-29.21c-1.74-5.19-2.96-10.53-3.66-15.96c-2.28-13.09-4.53-26.17-6.76-39.26
		c-1.11-6.44,3.22-12.55,9.65-13.66c5.26-0.9,10.48,1.83,12.73,6.67l0.54,1.15L1791.36,191.73z M1797.79,189.43L1797.79,189.43
		v36.69c0.17,1.75-1.12,3.3-2.86,3.47h-0.05c-1.76,0.18-3.34-1.11-3.52-2.87c-1.26-6.41-2.5-12.82-3.72-19.24
		c-0.81-4.2-1.6-8.41-2.42-12.61c-0.37-2.5-2.43-4.41-4.95-4.58c-2.43-0.24-4.68,1.28-5.38,3.61c-0.27,1.2-0.29,2.44-0.07,3.64
		c2.23,13.19,4.57,26.35,6.78,39.53c0.77,6.05,2.46,11.94,5.02,17.47c5.29,12.11,16.79,20.35,29.96,21.45
		c21.75,2.14,41.11-13.75,43.25-35.5c0.06-0.64,0.11-1.28,0.14-1.92c0.46-10.98,0.11-21.98,0.1-32.98c-0.06-2.94-2.5-5.28-5.45-5.21
		c-2.84,0.06-5.14,2.35-5.21,5.19c-0.05,2.83,0,5.65,0,8.48c0.07,1.78-1.32,3.28-3.1,3.34c0,0,0,0-0.01,0
		c-0.22,0.01-0.44-0.01-0.66-0.04c-1.64-0.26-2.81-1.73-2.69-3.39c0-5.02,0-10.05-0.05-15.07c0.02-0.88-0.11-1.76-0.37-2.59
		c-0.86-2.38-3.28-3.81-5.78-3.42c-2.6,0.4-4.52,2.62-4.56,5.24c-0.05,2.74,0,5.48,0,8.21c0.08,1.38-0.76,2.64-2.06,3.1
		c-1.59,0.7-3.45-0.03-4.14-1.62c-0.2-0.46-0.29-0.96-0.26-1.46c-0.04-5.08,0-10.15,0-15.24c0.08-1.47-0.41-2.92-1.36-4.04
		c-1.98-2.22-5.38-2.41-7.59-0.44c-1.18,1.05-1.83,2.56-1.8,4.14v15.37c0.16,1.78-1.16,3.36-2.94,3.51
		c-1.78,0.16-3.36-1.16-3.51-2.94c-0.02-0.24-0.02-0.48,0.02-0.71v-44.78c0-2.91,0-5.83-0.03-8.74c-0.01-2.53-1.82-4.7-4.31-5.18
		c-2.38-0.51-4.8,0.7-5.81,2.91c-0.41,1.02-0.61,2.11-0.6,3.21c-0.06,11.97-0.03,23.99-0.03,35.99L1797.79,189.43z"/>
</g>
<text transform="matrix(1 0 0 1 481.1422 562.2324)" class="st8 st9 st14">GO TO MYCASA</text>
<text transform="matrix(1 0 0 1 1516.5134 509.5362)" class="st8 st9 st15">GO TO MYCASA</text>
</svg>
